Coordinates
version=1
nRows=5
nColumns=40
inDegrees=yes

Units are S.I. units (second, meters, Newtons, ...)
Angles are in degrees.

endheader
time	pelvis_tilt	pelvis_list	pelvis_rotation	pelvis_tx	pelvis_ty	pelvis_tz	hip_flexion_r	hip_adduction_r	hip_rotation_r	knee_angle_r	knee_angle_r_beta	ankle_angle_r	subtalar_angle_r	mtp_angle_r	hip_flexion_l	hip_adduction_l	hip_rotation_l	knee_angle_l	knee_angle_l_beta	ankle_angle_l	subtalar_angle_l	mtp_angle_l	lumbar_extension	lumbar_bending	lumbar_rotation	arm_flex_r	arm_add_r	arm_rot_r	elbow_flex_r	pro_sup_r	wrist_flex_r	wrist_dev_r	arm_flex_l	arm_add_l	arm_rot_l	elbow_flex_l	pro_sup_l	wrist_flex_l	wrist_dev_l
     49.28000000	     -5.60662726	     -4.73417337	      0.40966687	      0.83788257	      0.92816362	      0.50232932	     14.73927742	      3.09116174	    -16.39035579	     17.86862110	     17.86862110	     10.13725775	     -2.41933617	     -2.40182711	     30.43187979	    -11.13894189	      3.28346990	     60.93482167	     60.93482167	      7.44843890	    -17.36263257	      9.34142500	    -10.68167910	      6.29685253	      1.30831987	     14.57553590	    -16.27125104	     -4.77381439	     61.84533324	     45.57331725	      0.00000000	      0.00000000	      6.91966744	     -7.67432796	     -9.00081061	     41.46651302	     45.43226410	      0.00000000	      0.00000000
     49.29321429	     -5.82989057	     -4.54060647	      0.70957327	      0.83666534	      0.92836878	      0.50277974	     14.46617748	      2.93398194	    -16.45305536	     17.66851878	     17.66851878	     10.32581663	     -2.57988226	     -2.44741834	     31.56530893	    -10.94811701	      2.90033283	     58.18380911	     58.18380911	      7.88133844	    -17.86263287	      9.58016198	    -10.65084090	      6.01941000	      0.96009930	     16.76862755	    -16.10744730	     -4.77229415	     63.69795462	     45.51808517	      0.00000000	      0.00000000	      5.82352387	     -7.64164516	     -8.86367101	     39.78866561	     45.41318482	      0.00000000	      0.00000000
     49.30642857	     -6.04976829	     -4.36690472	      0.99634726	      0.83548629	      0.92855180	      0.50323092	     14.17350287	      2.81267175	    -16.47728799	     17.42482519	     17.42482519	     10.47012366	     -2.78559644	     -2.54348341	     32.42659968	    -10.75786740	      2.44894016	     55.01174663	     55.01174663	      8.22960436	    -18.13978159	      9.53728742	    -10.64242838	      5.75546089	      1.31450933	     18.13310422	    -16.90593318	     -3.93796145	     66.84406297	     45.38531961	      0.00000000	      0.00000000	      5.97997337	     -7.27221079	     -8.77410575	     35.83163023	     45.47030315	      0.00000000	      0.00000000
     49.31964286	     -6.24406436	     -4.25814759	      1.28891521	      0.83439911	      0.92864045	      0.50354975	     13.86656234	      2.74810723	    -16.54015602	     17.22098353	     17.22098353	     10.66545874	     -2.98008167	     -2.54771081	     33.11778165	    -10.52890758	      2.08904821	     51.65369185	     51.65369185	      8.58562417	    -18.21256866	      9.88782025	    -10.61733518	      5.62071473	      1.08541656	     20.33967836	    -16.74145279	     -4.18789032	     68.67663116	     45.34280303	      0.00000000	      0.00000000	      4.84849510	     -7.21836959	     -8.70234331	     34.52751938	     45.45923256	      0.00000000	      0.00000000
     49.33285714	     -6.54417605	     -4.22357273	      1.56921040	      0.83329395	      0.92846178	      0.50374099	     13.72404920	      2.73091416	    -16.64409102	     17.08999055	     17.08999055	     10.83542136	     -3.14095706	     -2.57914407	     33.78111392	    -10.33011867	      1.73940528	     48.11732902	     48.11732902	      9.00336346	    -17.89516457	     10.22921337	    -10.45791160	      5.52596336	      1.35876315	     22.32991675	    -17.15808440	     -4.42683619	     69.86153026	     45.32089294	      0.00000000	      0.00000000	      3.86943783	     -6.96676495	     -8.63865568	     33.72600050	     45.44077812	      0.00000000	      0.00000000
